<svg xmlns="http://www.w3.org/2000/svg" viewBox="0 0 1600 320">
  <defs>
    <linearGradient id="sky" x1="0" y1="0" x2="0" y2="1">
      <stop offset="0%" stop-color="#122243"/>
      <stop offset="55%" stop-color="#2f5f9c"/>
      <stop offset="100%" stop-color="#8ad0ff"/>
    </linearGradient>
    <linearGradient id="ground" x1="0" y1="0" x2="0" y2="1">
      <stop offset="0%" stop-color="#6fc96f"/>
      <stop offset="100%" stop-color="#3a8b45"/>
    </linearGradient>
    <filter id="soft" x="-20%" y="-20%" width="140%" height="140%">
      <feGaussianBlur stdDeviation="2"/>
    </filter>
  </defs>

  <rect width="1600" height="320" fill="url(#sky)"/>

  <g fill="#ffffff" opacity="0.85">
    <circle cx="120" cy="70" r="3"/>
    <circle cx="280" cy="36" r="2.5"/>
    <circle cx="420" cy="62" r="2.2"/>
    <circle cx="580" cy="40" r="2.8"/>
    <circle cx="730" cy="58" r="2.3"/>
    <circle cx="920" cy="34" r="2.6"/>
    <circle cx="1060" cy="64" r="2.2"/>
    <circle cx="1240" cy="42" r="2.5"/>
    <circle cx="1390" cy="56" r="2.4"/>
  </g>

  <g opacity="0.35" filter="url(#soft)">
    <ellipse cx="250" cy="92" rx="90" ry="24" fill="#dff4ff"/>
    <ellipse cx="860" cy="98" rx="120" ry="28" fill="#dff4ff"/>
    <ellipse cx="1330" cy="88" rx="90" ry="20" fill="#dff4ff"/>
  </g>

  <rect y="250" width="1600" height="70" fill="url(#ground)"/>
  <path d="M0,248 C120,222 260,224 400,248 C540,272 680,270 820,248 C960,226 1100,226 1240,248 C1380,270 1500,266 1600,248 L1600,320 L0,320 Z" fill="#4ca25a"/>

  <g transform="translate(730 148)">
    <circle cx="70" cy="70" r="50" fill="#ffffff" stroke="#1f1f1f" stroke-width="8"/>
    <path d="M20,70 A50,50 0 0 1 120,70 Z" fill="#f45d55" stroke="#1f1f1f" stroke-width="8"/>
    <circle cx="70" cy="70" r="13" fill="#ffffff" stroke="#1f1f1f" stroke-width="6"/>
  </g>

  <g transform="translate(540 170)">
    <ellipse cx="0" cy="36" rx="28" ry="22" fill="#8fd6a9" stroke="#223" stroke-width="4"/>
    <path d="M-14 18c3-8 8-12 14-12s11 4 14 12" fill="#66b884" stroke="#223" stroke-width="3"/>
    <circle cx="-8" cy="34" r="3" fill="#223"/>
    <circle cx="8" cy="34" r="3" fill="#223"/>
  </g>

  <g transform="translate(1070 170)">
    <circle cx="0" cy="34" r="24" fill="#ffb773" stroke="#2a1f1a" stroke-width="4"/>
    <circle cx="-7" cy="31" r="3" fill="#2a1f1a"/>
    <circle cx="7" cy="31" r="3" fill="#2a1f1a"/>
    <path d="M15 45c6-2 10-7 12-13 3 3 3 8 1 12-3 5-8 8-14 7" fill="#ff8d3a" stroke="#2a1f1a" stroke-width="3"/>
  </g>
</svg>
